<?xml version="1.0" encoding="UTF-8" standalone="no"?>
<svg
   xmlns:dc="http://purl.org/dc/elements/1.1/"
   xmlns:cc="http://creativecommons.org/ns#"
   xmlns:rdf="http://www.w3.org/1999/02/22-rdf-syntax-ns#"
   xmlns:svg="http://www.w3.org/2000/svg"
   xmlns="http://www.w3.org/2000/svg"
   xmlns:sodipodi="http://sodipodi.sourceforge.net/DTD/sodipodi-0.dtd"
   xmlns:inkscape="http://www.inkscape.org/namespaces/inkscape"
   height="24"
   width="24"
   version="1.1"
   id="svg16"
   sodipodi:docname="Home.svg"
   inkscape:version="1.0.2-2 (e86c870879, 2021-01-15)">
  <metadata
     id="metadata22">
    <rdf:RDF>
      <cc:Work
         rdf:about="">
        <dc:format>image/svg+xml</dc:format>
        <dc:type
           rdf:resource="http://purl.org/dc/dcmitype/StillImage" />
        <dc:title />
      </cc:Work>
    </rdf:RDF>
  </metadata>
  <defs
     id="defs20" />
  <sodipodi:namedview
     pagecolor="#ffffff"
     bordercolor="#666666"
     borderopacity="1"
     objecttolerance="10"
     gridtolerance="10"
     guidetolerance="10"
     inkscape:pageopacity="0"
     inkscape:pageshadow="2"
     inkscape:window-width="1920"
     inkscape:window-height="1018"
     id="namedview18"
     showgrid="false"
     inkscape:zoom="25.043365"
     inkscape:cx="10.245684"
     inkscape:cy="11.345055"
     inkscape:window-x="-6"
     inkscape:window-y="-6"
     inkscape:window-maximized="1"
     inkscape:current-layer="svg16"
     inkscape:document-rotation="0" />
  <g
     id="g878">
    <path
       style="color:#000000;font-style:normal;font-variant:normal;font-weight:normal;font-stretch:normal;font-size:medium;line-height:normal;font-family:sans-serif;font-variant-ligatures:normal;font-variant-position:normal;font-variant-caps:normal;font-variant-numeric:normal;font-variant-alternates:normal;font-variant-east-asian:normal;font-feature-settings:normal;font-variation-settings:normal;text-indent:0;text-align:start;text-decoration:none;text-decoration-line:none;text-decoration-style:solid;text-decoration-color:#000000;letter-spacing:normal;word-spacing:normal;text-transform:none;writing-mode:lr-tb;direction:ltr;text-orientation:mixed;dominant-baseline:auto;baseline-shift:baseline;text-anchor:start;white-space:normal;shape-padding:0;shape-margin:0;inline-size:0;clip-rule:nonzero;display:inline;overflow:visible;visibility:visible;isolation:auto;mix-blend-mode:normal;color-interpolation:sRGB;color-interpolation-filters:linearRGB;solid-color:#000000;solid-opacity:1;vector-effect:none;fill:#747474;fill-opacity:1;fill-rule:nonzero;stroke:none;stroke-linecap:butt;stroke-linejoin:miter;stroke-miterlimit:4;stroke-dasharray:none;stroke-dashoffset:0;stroke-opacity:1;color-rendering:auto;image-rendering:auto;shape-rendering:auto;text-rendering:auto;enable-background:accumulate;stop-color:#000000;stop-opacity:1;opacity:1;stroke-width:1"
       d="M 6.9550781 1.1601562 A 0.77700001 0.77700001 0 0 0 6.1796875 1.9375 A 0.77700001 0.77700001 0 0 0 6.9550781 2.7128906 L 11.974609 2.7128906 L 16.994141 2.7128906 A 0.77700001 0.77700001 0 0 0 17.771484 1.9375 A 0.77700001 0.77700001 0 0 0 16.994141 1.1601562 L 11.974609 1.1601562 L 6.9550781 1.1601562 z M 1.9375 6.1796875 A 0.77700001 0.77700001 0 0 0 1.1601562 6.9550781 L 1.1601562 11.974609 L 1.1601562 16.994141 A 0.77700001 0.77700001 0 0 0 1.9375 17.771484 A 0.77700001 0.77700001 0 0 0 2.7128906 16.994141 L 2.7128906 11.974609 L 2.7128906 6.9550781 A 0.77700001 0.77700001 0 0 0 1.9375 6.1796875 z M 22.013672 6.1796875 A 0.77700001 0.77700001 0 0 0 21.236328 6.9550781 L 21.236328 11.974609 L 21.236328 16.994141 A 0.77700001 0.77700001 0 0 0 22.013672 17.771484 A 0.77700001 0.77700001 0 0 0 22.789062 16.994141 L 22.789062 11.974609 L 22.789062 6.9550781 A 0.77700001 0.77700001 0 0 0 22.013672 6.1796875 z M 6.9550781 21.236328 A 0.77700001 0.77700001 0 0 0 6.1796875 22.013672 A 0.77700001 0.77700001 0 0 0 6.9550781 22.789062 L 11.974609 22.789062 L 16.994141 22.789062 A 0.77700001 0.77700001 0 0 0 17.771484 22.013672 A 0.77700001 0.77700001 0 0 0 16.994141 21.236328 L 11.974609 21.236328 L 6.9550781 21.236328 z "
       id="path2" />
    <g
       fill="#6d97c4"
       fill-rule="evenodd"
       stroke="#415a75"
       stroke-linejoin="round"
       id="g12"
       transform="matrix(0.7638874,0,0,0.7638874,2.8333513,-3.2777479)"
       style="fill:#ffffff;fill-opacity:1;stroke:#000000;stroke-opacity:1">
      <path
         d="m 12,31 4.5,-4.5 h -3 v -3 h -3 v 3 h -3 z"
         id="path4"
         style="fill:#ffffff;fill-opacity:1;stroke:#000000;stroke-opacity:1" />
      <path
         d="m 1,20 4.5,4.5 v -3 h 3 v -3 h -3 v -3 z"
         id="path6"
         style="fill:#ffffff;fill-opacity:1;stroke:#000000;stroke-opacity:1" />
      <path
         d="m 12,9 4.5,4.5 h -3 v 3 h -3 v -3 h -3 z"
         id="path8"
         style="fill:#ffffff;fill-opacity:1;stroke:#000000;stroke-opacity:1" />
      <path
         d="m 23,20 -4.5,4.5 v -3 h -3 v -3 h 3 v -3 z"
         id="path10"
         style="fill:#ffffff;fill-opacity:1;stroke:#000000;stroke-opacity:1" />
    </g>
  </g>
</svg>
