<?xml version="1.0" encoding="UTF-8" standalone="no"?>
<svg
   xmlns:dc="http://purl.org/dc/elements/1.1/"
   xmlns:cc="http://creativecommons.org/ns#"
   xmlns:rdf="http://www.w3.org/1999/02/22-rdf-syntax-ns#"
   xmlns:svg="http://www.w3.org/2000/svg"
   xmlns="http://www.w3.org/2000/svg"
   xmlns:sodipodi="http://sodipodi.sourceforge.net/DTD/sodipodi-0.dtd"
   xmlns:inkscape="http://www.inkscape.org/namespaces/inkscape"
   id="svg3792"
   viewBox="0 0 48 48"
   version="1.1"
   sodipodi:docname="Options.svg"
   inkscape:version="1.0.2-2 (e86c870879, 2021-01-15)">
  <defs
     id="defs9">
    <filter
       style="color-interpolation-filters:sRGB;"
       inkscape:label="Drop Shadow"
       id="filter4556">
      <feFlood
         flood-opacity="0.498039"
         flood-color="rgb(0,0,0)"
         result="flood"
         id="feFlood4546" />
      <feComposite
         in="flood"
         in2="SourceGraphic"
         operator="in"
         result="composite1"
         id="feComposite4548" />
      <feGaussianBlur
         in="composite1"
         stdDeviation="3"
         result="blur"
         id="feGaussianBlur4550" />
      <feOffset
         dx="3"
         dy="3"
         result="offset"
         id="feOffset4552" />
      <feComposite
         in="SourceGraphic"
         in2="offset"
         operator="over"
         result="composite2"
         id="feComposite4554" />
    </filter>
    <filter
       style="color-interpolation-filters:sRGB;"
       inkscape:label="Drop Shadow"
       id="filter4568">
      <feFlood
         flood-opacity="0.498039"
         flood-color="rgb(0,0,0)"
         result="flood"
         id="feFlood4558" />
      <feComposite
         in="flood"
         in2="SourceGraphic"
         operator="in"
         result="composite1"
         id="feComposite4560" />
      <feGaussianBlur
         in="composite1"
         stdDeviation="3"
         result="blur"
         id="feGaussianBlur4562" />
      <feOffset
         dx="3"
         dy="3"
         result="offset"
         id="feOffset4564" />
      <feComposite
         in="SourceGraphic"
         in2="offset"
         operator="over"
         result="composite2"
         id="feComposite4566" />
    </filter>
  </defs>
  <sodipodi:namedview
     pagecolor="#ffffff"
     bordercolor="#666666"
     borderopacity="1"
     objecttolerance="10"
     gridtolerance="10"
     guidetolerance="10"
     inkscape:pageopacity="0"
     inkscape:pageshadow="2"
     inkscape:window-width="1920"
     inkscape:window-height="1010"
     id="namedview7"
     showgrid="false"
     inkscape:zoom="8.3752402"
     inkscape:cx="13.371235"
     inkscape:cy="18.016606"
     inkscape:window-x="-7"
     inkscape:window-y="-7"
     inkscape:window-maximized="1"
     inkscape:current-layer="svg3792"
     inkscape:document-rotation="0" />
  <metadata
     id="metadata4">
    <rdf:RDF>
      <cc:Work>
        <dc:format>image/svg+xml</dc:format>
        <dc:type
           rdf:resource="http://purl.org/dc/dcmitype/StillImage" />
        <cc:license
           rdf:resource="http://creativecommons.org/licenses/publicdomain/" />
        <dc:publisher>
          <cc:Agent
             rdf:about="http://openclipart.org/">
            <dc:title>Openclipart</dc:title>
          </cc:Agent>
        </dc:publisher>
        <dc:title />
        <dc:date>2013-07-15T19:10:44</dc:date>
        <dc:description>An export icon</dc:description>
        <dc:source>https://openclipart.org/detail/180891/export-icon-2-by-dibargatin-180891</dc:source>
        <dc:creator>
          <cc:Agent>
            <dc:title>dibargatin</dc:title>
          </cc:Agent>
        </dc:creator>
        <dc:subject>
          <rdf:Bag>
            <rdf:li>android</rdf:li>
            <rdf:li>export</rdf:li>
            <rdf:li>icon</rdf:li>
          </rdf:Bag>
        </dc:subject>
      </cc:Work>
      <cc:License
         rdf:about="http://creativecommons.org/licenses/publicdomain/">
        <cc:permits
           rdf:resource="http://creativecommons.org/ns#Reproduction" />
        <cc:permits
           rdf:resource="http://creativecommons.org/ns#Distribution" />
        <cc:permits
           rdf:resource="http://creativecommons.org/ns#DerivativeWorks" />
      </cc:License>
    </rdf:RDF>
  </metadata>
  <path
     id="path2989"
     d="m 14.664,17.062569 c -0.827221,0 -1.639022,0.0744 -2.427872,0.208849 l -0.385072,4.079114 c -0.8154,0.226624 -1.587477,0.545452 -2.3095626,0.952041 l -3.152845,-2.603949 c -1.331525,0.942598 -2.497081,2.101378 -3.439569,3.433014 l 2.610615,3.152401 c -0.406967,0.721441 -0.732027,1.495605 -0.959417,2.31045 L 0.52760624,28.97956 c -0.134541,0.789139 -0.208849,1.600474 -0.208849,2.427983 0,0.828898 0.07385,1.637467 0.208849,2.427872 l 4.07267116,0.385093 c 0.227401,0.814823 0.55245,1.589032 0.959417,2.31045 l -2.604171,3.152401 c 0.940732,1.32797 2.098601,2.492304 3.42646,3.433014 l 3.15951,-2.611725 c 0.7227746,0.407811 1.4939406,0.731894 2.3104516,0.959417 l 0.385071,4.079114 c 0.788906,0.134474 1.600696,0.202339 2.427872,0.202339 0.827221,0 1.632468,-0.06786 2.421429,-0.202339 l 0.385071,-4.079114 c 0.816501,-0.227523 1.587699,-0.551606 2.31045,-0.959417 l 3.158955,2.610726 c 1.327859,-0.940777 2.48575,-2.105156 3.42646,-3.433015 l -2.604171,-3.152401 c 0.406967,-0.721451 0.732027,-1.495604 0.959417,-2.310449 l 4.072671,-0.385094 c 0.134996,-0.790439 0.208849,-1.599029 0.208849,-2.427872 0,-0.827498 -0.07432,-1.638799 -0.208849,-2.427983 l -4.072671,-0.385071 c -0.22739,-0.814823 -0.55245,-1.589031 -0.959417,-2.31045 l 2.610615,-3.152401 c -0.942432,-1.331636 -2.108044,-2.490415 -3.439569,-3.433014 l -3.152401,2.604172 C 19.05942,21.89434 18.287233,21.576334 17.471277,21.34891 L 17.086206,17.269796 C 16.2973,17.135344 15.492064,17.060947 14.664777,17.060947 Z m 0,8.882756 c 3.016537,0 5.456296,2.446202 5.456296,5.462851 0,3.016538 -2.439759,5.46274 -5.456296,5.46274 -3.016538,0 -5.4628526,-2.446202 -5.4628526,-5.46274 0,-3.016649 2.4462036,-5.462851 5.4628526,-5.462851 z"
     style="fill:#ffcc00;fill-opacity:1;stroke-width:1.1109;filter:url(#filter4556)"
     inkscape:connector-curvature="0"
     transform="matrix(0.94213415,0,0,0.93917886,-0.1517741,2.9525343)" />
  <path
     id="path2985"
     style="fill:#71c837;fill-opacity:1;stroke-width:1.1109;filter:url(#filter4568)"
     inkscape:connector-curvature="0"
     d="M 29.909991,0.751113 C 29.11452,0.978115 28.354287,1.272436 27.632646,1.618204 l 0.749102,4.028235 C 27.659663,6.089021 27.004232,6.606812 26.42101,7.196811 L 22.675055,5.557678 c -1.020917,1.271758 -1.824098,2.70593 -2.365106,4.245193 l 3.37547,2.315004 c -0.193364,0.805425 -0.2935,1.639022 -0.288568,2.484973 l -3.810609,1.487939 c 0.08718,0.795771 0.238355,1.596363 0.465423,2.39199 0.227468,0.797082 0.520367,1.554371 0.86709,2.277345 l 4.022014,-0.747291 c 0.44226,0.72114 0.967294,1.376405 1.556593,1.958405 l -1.639133,3.745955 c 1.268981,1.018795 2.701931,1.820654 4.237084,2.360996 l 2.321225,-3.377358 c 0.806936,0.193818 1.637467,0.293833 2.484972,0.288567 l 1.489717,3.816941 c 0.795516,-0.08718 1.594808,-0.244686 2.390213,-0.471688 0.795471,-0.227001 1.551149,-0.513236 2.272901,-0.859048 l -0.749102,-4.028234 c 0.722718,-0.442849 1.375294,-0.966117 1.958517,-1.556593 l 3.754064,1.643576 c 1.018751,-1.269092 1.812656,-2.706485 2.352886,-4.241527 l -3.369248,-2.316671 c 0.193363,-0.805436 0.2935,-1.639133 0.288567,-2.484972 l 3.810609,-1.487939 c -0.08709,-0.797138 -0.237955,-1.59492 -0.465422,-2.39199 C 47.408133,9.815524 47.114033,9.055768 46.76811,8.333794 L 42.745541,9.079208 C 42.302292,8.358234 41.777947,7.703025 41.188059,7.121025 L 42.833302,3.373182 C 41.562432,2.351376 40.123817,1.55686 38.584109,1.015852 L 36.267883,4.3851 C 35.46137,4.191471 34.631527,4.0976 33.783911,4.102821 L 32.294194,0.285879 c -0.795516,0.08719 -1.590254,0.236633 -2.385769,0.463635 z m 2.437537,8.541821 c 2.900782,-0.827798 5.918098,0.855027 6.74594,3.755842 0.827798,2.900782 -0.846972,5.922541 -3.747732,6.750384 -2.90056,0.827621 -5.92443,-0.853171 -6.75205,-3.753731 -0.827621,-2.90056 0.853171,-5.92443 3.753731,-6.75205 z"
     transform="matrix(0.94213415,0,0,0.93917886,-0.1517741,2.9525343)" />
</svg>
