<?xml version="1.0" encoding="UTF-8" standalone="no"?>
<svg
   xmlns:dc="http://purl.org/dc/elements/1.1/"
   xmlns:cc="http://creativecommons.org/ns#"
   xmlns:rdf="http://www.w3.org/1999/02/22-rdf-syntax-ns#"
   xmlns:svg="http://www.w3.org/2000/svg"
   xmlns="http://www.w3.org/2000/svg"
   xmlns:sodipodi="http://sodipodi.sourceforge.net/DTD/sodipodi-0.dtd"
   xmlns:inkscape="http://www.inkscape.org/namespaces/inkscape"
   id="svg3792"
   viewBox="0 0 48 48"
   version="1.1"
   sodipodi:docname="TimeMaps.svg"
   inkscape:version="1.0.1 (3bc2e813f5, 2020-09-07)">
  <defs
     id="defs9" />
  <sodipodi:namedview
     pagecolor="#ffffff"
     bordercolor="#666666"
     borderopacity="1"
     objecttolerance="10"
     gridtolerance="10"
     guidetolerance="10"
     inkscape:pageopacity="0"
     inkscape:pageshadow="2"
     inkscape:window-width="1920"
     inkscape:window-height="1010"
     id="namedview7"
     showgrid="false"
     inkscape:zoom="8.3752402"
     inkscape:cx="11.580242"
     inkscape:cy="18.016606"
     inkscape:window-x="-7"
     inkscape:window-y="-7"
     inkscape:window-maximized="1"
     inkscape:current-layer="svg3792"
     inkscape:document-rotation="0" />
  <metadata
     id="metadata4">
    <rdf:RDF>
      <cc:Work>
        <dc:format>image/svg+xml</dc:format>
        <dc:type
           rdf:resource="http://purl.org/dc/dcmitype/StillImage" />
        <cc:license
           rdf:resource="http://creativecommons.org/licenses/publicdomain/" />
        <dc:publisher>
          <cc:Agent
             rdf:about="http://openclipart.org/">
            <dc:title>Openclipart</dc:title>
          </cc:Agent>
        </dc:publisher>
        <dc:title />
        <dc:date>2013-07-15T19:10:44</dc:date>
        <dc:description>An export icon</dc:description>
        <dc:source>https://openclipart.org/detail/180891/export-icon-2-by-dibargatin-180891</dc:source>
        <dc:creator>
          <cc:Agent>
            <dc:title>dibargatin</dc:title>
          </cc:Agent>
        </dc:creator>
        <dc:subject>
          <rdf:Bag>
            <rdf:li>android</rdf:li>
            <rdf:li>export</rdf:li>
            <rdf:li>icon</rdf:li>
          </rdf:Bag>
        </dc:subject>
      </cc:Work>
      <cc:License
         rdf:about="http://creativecommons.org/licenses/publicdomain/">
        <cc:permits
           rdf:resource="http://creativecommons.org/ns#Reproduction" />
        <cc:permits
           rdf:resource="http://creativecommons.org/ns#Distribution" />
        <cc:permits
           rdf:resource="http://creativecommons.org/ns#DerivativeWorks" />
      </cc:License>
    </rdf:RDF>
  </metadata>
  <path
     d="M 1.2615102,2.1391081 H 47.692305 V 44.904315 H 1.2615102 Z"
     id="path911"
     style="opacity:1;fill:#ffffff;stroke-width:0.122186"
     sodipodi:nodetypes="ccccc" />
  <g
     id="Film"
     fill="#c34e23"
     opacity="0.5"
     transform="matrix(0.12218631,0,0,0.12218631,24.23811,23.402313)"
     style="fill:#000000">
    <title
       id="title4">Film</title>
    <path
       d="m -190,-175 h 380 v 350 h -380 z m 351.445,13.53 a 5.1,5.1 0 0 0 -5.1,5.1 v 17.74 a 5.1,5.1 0 0 0 5.1,5.1 h 9.61 a 5.1,5.1 0 0 0 5.1,-5.1 v -17.74 a 5.1,5.1 0 0 0 -5.1,-5.1 z m -47.5,0 a 5.1,5.1 0 0 0 -5.1,5.1 v 17.74 a 5.1,5.1 0 0 0 5.1,5.1 h 9.61 a 5.1,5.1 0 0 0 5.1,-5.1 v -17.74 a 5.1,5.1 0 0 0 -5.1,-5.1 z m -47.5,0 a 5.1,5.1 0 0 0 -5.1,5.1 v 17.74 a 5.1,5.1 0 0 0 5.1,5.1 h 9.61 a 5.1,5.1 0 0 0 5.1,-5.1 v -17.74 a 5.1,5.1 0 0 0 -5.1,-5.1 z m -47.5,0 a 5.1,5.1 0 0 0 -5.1,5.1 v 17.74 a 5.1,5.1 0 0 0 5.1,5.1 h 9.61 a 5.1,5.1 0 0 0 5.1,-5.1 v -17.74 a 5.1,5.1 0 0 0 -5.1,-5.1 z m -47.5,0 a 5.1,5.1 0 0 0 -5.1,5.1 v 17.74 a 5.1,5.1 0 0 0 5.1,5.1 h 9.61 a 5.1,5.1 0 0 0 5.1,-5.1 v -17.74 a 5.1,5.1 0 0 0 -5.1,-5.1 z m -47.5,0 a 5.1,5.1 0 0 0 -5.1,5.1 v 17.74 a 5.1,5.1 0 0 0 5.1,5.1 h 9.61 a 5.1,5.1 0 0 0 5.1,-5.1 v -17.74 a 5.1,5.1 0 0 0 -5.1,-5.1 z m -47.5,0 a 5.1,5.1 0 0 0 -5.1,5.1 v 17.74 a 5.1,5.1 0 0 0 5.1,5.1 h 9.61 a 5.1,5.1 0 0 0 5.1,-5.1 v -17.74 a 5.1,5.1 0 0 0 -5.1,-5.1 z m -47.5,0 a 5.1,5.1 0 0 0 -5.1,5.1 v 17.74 a 5.1,5.1 0 0 0 5.1,5.1 h 9.61 a 5.1,5.1 0 0 0 5.1,-5.1 v -17.74 a 5.1,5.1 0 0 0 -5.1,-5.1 z m 332.5,295 a 5.1,5.1 0 0 0 -5.1,5.1 v 17.74 a 5.1,5.1 0 0 0 5.1,5.1 h 9.61 a 5.1,5.1 0 0 0 5.1,-5.1 v -17.74 a 5.1,5.1 0 0 0 -5.1,-5.1 z m -47.5,0 a 5.1,5.1 0 0 0 -5.1,5.1 v 17.74 a 5.1,5.1 0 0 0 5.1,5.1 h 9.61 a 5.1,5.1 0 0 0 5.1,-5.1 v -17.74 a 5.1,5.1 0 0 0 -5.1,-5.1 z m -47.5,0 a 5.1,5.1 0 0 0 -5.1,5.1 v 17.74 a 5.1,5.1 0 0 0 5.1,5.1 h 9.61 a 5.1,5.1 0 0 0 5.1,-5.1 v -17.74 a 5.1,5.1 0 0 0 -5.1,-5.1 z m -47.5,0 a 5.1,5.1 0 0 0 -5.1,5.1 v 17.74 a 5.1,5.1 0 0 0 5.1,5.1 h 9.61 a 5.1,5.1 0 0 0 5.1,-5.1 v -17.74 a 5.1,5.1 0 0 0 -5.1,-5.1 z m -47.5,0 a 5.1,5.1 0 0 0 -5.1,5.1 v 17.74 a 5.1,5.1 0 0 0 5.1,5.1 h 9.61 a 5.1,5.1 0 0 0 5.1,-5.1 v -17.74 a 5.1,5.1 0 0 0 -5.1,-5.1 z m -47.5,0 a 5.1,5.1 0 0 0 -5.1,5.1 v 17.74 a 5.1,5.1 0 0 0 5.1,5.1 h 9.61 a 5.1,5.1 0 0 0 5.1,-5.1 v -17.74 a 5.1,5.1 0 0 0 -5.1,-5.1 z m -47.5,0 a 5.1,5.1 0 0 0 -5.1,5.1 v 17.74 a 5.1,5.1 0 0 0 5.1,5.1 h 9.61 a 5.1,5.1 0 0 0 5.1,-5.1 v -17.74 a 5.1,5.1 0 0 0 -5.1,-5.1 z m -47.5,0 a 5.1,5.1 0 0 0 -5.1,5.1 v 17.74 a 5.1,5.1 0 0 0 5.1,5.1 h 9.61 a 5.1,5.1 0 0 0 5.1,-5.1 v -17.74 a 5.1,5.1 0 0 0 -5.1,-5.1 z"
       id="path6"
       style="fill:#000000" />
  </g>
  <rect
     style="font-variation-settings:normal;opacity:1;vector-effect:none;fill:#71c837;fill-opacity:1;stroke:#4d4d4d;stroke-width:0.773045px;stroke-linecap:round;stroke-linejoin:round;stroke-miterlimit:4;stroke-dasharray:none;stroke-dashoffset:0;stroke-opacity:1;stop-color:#000000;stop-opacity:1"
     id="rect875"
     width="16.715597"
     height="28.488348"
     x="2.2567534"
     y="8.9909353" />
  <rect
     style="font-variation-settings:normal;opacity:1;vector-effect:none;fill:#ffcc00;fill-opacity:1;stroke:#4d4d4d;stroke-width:0.697379px;stroke-linecap:round;stroke-linejoin:round;stroke-miterlimit:4;stroke-dasharray:none;stroke-dashoffset:0;stroke-opacity:1;stop-color:#000000;stop-opacity:1"
     id="rect891"
     width="13.567475"
     height="28.564013"
     x="19.86072"
     y="8.9531031" />
  <rect
     style="font-variation-settings:normal;opacity:1;vector-effect:none;fill:#c87137;fill-opacity:1;stroke:#4d4d4d;stroke-width:0.653929px;stroke-linecap:round;stroke-linejoin:round;stroke-miterlimit:4;stroke-dasharray:none;stroke-dashoffset:0;stroke-opacity:1;stop-color:#000000;stop-opacity:1"
     id="rect893"
     width="11.935596"
     height="28.549385"
     x="34.440483"
     y="8.9604168" />
</svg>
